2.5Hzlow3min_grf.mot
version=1
nRows=17
nColumns 19
inDegrees=yes
endheader
time	1_ground_force_vx	1_ground_force_vy	1_ground_force_vz	1_ground_force_px	1_ground_force_py	1_ground_force_pz	1_ground_torque_x	1_ground_torque_y	1_ground_torque_z	2_ground_force_vx	2_ground_force_vy	2_ground_force_vz	2_ground_force_px	2_ground_force_py	2_ground_force_pz	2_ground_torque_x	2_ground_torque_y	2_ground_torque_z
            0.005000	           -0.091195	           -1.442536	            0.085756	           -0.198901	            0.006274	           -0.415697	           -0.398155	            0.084687	           -0.378469	            0.046809	            0.000504	           -0.093876	           -0.237352	            0.005402	           -0.634800	           -0.394443	           -0.001828	            0.113269
            0.005500	           -0.137544	           -0.540627	           -0.047833	           -0.198901	            0.006274	           -0.415697	           -0.486817	            0.029344	           -0.418069	            0.189414	           -0.551936	            0.044877	           -0.237352	            0.005402	           -0.634800	           -0.300728	            0.046111	            0.019147
            0.006000	           -0.229050	           -0.901373	           -0.003296	           -0.198901	            0.006274	           -0.415697	           -0.525860	            0.019650	           -0.327920	            0.331293	           -0.919725	            0.043503	           -0.237352	            0.005402	           -0.634800	           -0.375656	           -0.010944	            0.037826
            0.006500	           -0.366678	           -0.360602	           -0.000636	           -0.198901	            0.006274	           -0.415697	           -0.469935	           -0.072756	           -0.353136	            0.239546	           -1.472173	           -0.052284	           -0.237352	            0.005402	           -0.634800	           -0.431962	           -0.020734	            0.075517
            0.007000	           -0.366352	           -0.901792	            0.088757	           -0.198901	            0.006274	           -0.415697	           -0.417251	            0.047502	           -0.371530	            0.050796	           -1.104386	           -0.097818	           -0.237352	            0.005402	           -0.634800	           -0.394501	           -0.001357	           -0.018682
            0.007500	           -0.412797	           -0.720553	           -0.139636	           -0.198901	            0.006274	           -0.415697	           -0.464151	            0.084841	           -0.467205	            0.048844	           -0.552276	           -0.001991	           -0.237352	            0.005402	           -0.634800	           -0.357056	            0.018155	           -0.150582
            0.008000	           -0.091117	           -0.001001	            0.229507	           -0.198901	            0.006274	           -0.415697	           -0.536257	            0.075260	           -0.340621	            0.236182	           -0.551097	           -0.142855	           -0.237352	            0.005402	           -0.634800	           -0.375579	           -0.039100	           -0.018825
            0.008500	           -0.320622	           -0.901587	            0.042788	           -0.198901	            0.006274	           -0.415697	           -0.471693	            0.010699	           -0.407194	            0.145805	           -1.472177	           -0.146101	           -0.237352	            0.005402	           -0.634800	           -0.338077	           -0.010875	            0.056661
            0.009000	           -0.366352	           -0.901792	            0.088757	           -0.198901	            0.006274	           -0.415697	           -0.511244	            0.010752	           -0.427849	            0.139865	            0.184823	           -0.046331	           -0.237352	            0.005402	           -0.634800	           -0.338019	           -0.020530	            0.113178
            0.009500	           -0.412147	           -0.541467	            0.136273	           -0.198901	            0.006274	           -0.415697	           -0.569564	            0.001156	           -0.354520	            0.000623	           -0.183814	           -0.094513	           -0.237352	            0.005402	           -0.634800	           -0.356845	           -0.020261	            0.018935
            0.010000	           -0.320817	           -1.081459	           -0.049697	           -0.198901	            0.006274	           -0.415697	           -0.542662	            0.010521	           -0.369416	            0.049467	           -0.736089	           -0.096504	           -0.237352	            0.005402	           -0.634800	           -0.356657	           -0.076843	           -0.018968
            0.010500	           -0.549837	           -0.901631	            0.043356	           -0.198901	            0.006274	           -0.415697	           -0.509175	            0.047399	           -0.379121	            0.004091	           -1.105727	            0.230698	           -0.237352	            0.005402	           -0.634800	           -0.375570	           -0.048351	           -0.075410
            0.011000	           -0.457942	           -0.181141	            0.183788	           -0.198901	            0.006274	           -0.415697	           -0.478237	            0.084909	           -0.487942	            0.048179	           -0.368127	           -0.001334	           -0.237352	            0.005402	           -0.634800	           -0.319393	            0.008367	           -0.018681
            0.011500	           -0.229620	           -0.900390	           -0.232575	           -0.198901	            0.006274	           -0.415697	           -0.441145	            0.075360	           -0.384285	           -0.000123	            0.001004	           -0.281569	           -0.237352	            0.005402	           -0.634800	           -0.375700	            0.007760	            0.094445
            0.012000	           -0.275169	           -1.261323	           -0.142296	           -0.198901	            0.006274	           -0.415697	           -0.538544	            0.047352	           -0.329711	            0.001891	           -0.551608	           -0.236612	           -0.237352	            0.005402	           -0.634800	           -0.300651	            0.027138	            0.037929
            0.012500	           -0.366594	           -1.442000	           -0.051129	           -0.198901	            0.006274	           -0.415697	           -0.448753	           -0.035377	           -0.446981	            0.097023	           -0.920403	           -0.003325	           -0.237352	            0.005402	           -0.634800	           -0.263047	            0.017821	            0.037880
            0.013000	           -0.595731	           -0.000508	            0.093191	           -0.198901	            0.006274	           -0.415697	           -0.492692	           -0.045455	           -0.287557	            0.283114	           -0.551597	            0.044837	           -0.237352	            0.005402	           -0.634800	           -0.319495	            0.027541	           -0.094014
